# xmcd
#
# Track frame offsets: 
#        150
#        16850
#        32765
#        51112
#        67380
#        83877
#        101675
#        121177
#        141622
#        165185
#        186430
#        199757
#        222562
#        248202
#        268122
#        283327
#        305392
#
# Disc length: 4407 seconds
#
# Revision: 3
# Processed by: cddbd v1.5.1PL0 Copyright (c) Steve Scherf et al.
# Submitted via: ExactAudioCopy v0.95a5
#
DISCID=07113511
DTITLE=Various Artist - Black Top Blues Vocal Dynamite!
DYEAR=1998
DGENRE=Blues
TTITLE0=Robert Ward - Toehold
TTITLE1=Grady "Fats" Jackson - Coffee Break Blues
TTITLE2=Solomon Burke - Along About Midnight
TTITLE3=Lynn August - Undivided Love
TTITLE4=Kim Wilson - So Many Roads
TTITLE5=Joe Medwick - Your Girlfriend
TTITLE6=Tommy Ridgley - Shack Up With Me
TTITLE7=Maria Muldaur and Dr. John - Best of Me
TTITLE8=James Harman Band - The Four Questions
TTITLE9=Phillip Walker - Special Built Woman
TTITLE10=Big Joe and the Dynaflows - Ever Since the World Began
TTITLE11=Earl King - Seduction
TTITLE12=Bobby Parker - Kick It Around With You
TTITLE13=Sam Myers - Tomorrow Will Find Me the Same Way
TTITLE14=Lee McBee - I Should've Done Better
TTITLE15=Carol Fran - I'll Never Be Free
TTITLE16=Snooks Eaglin - Nine Pound Steel
EXTD=LABEL =Black Top Records, Inc.\nID =BT-1124\nUPC =011661-6624-
EXTD=21\nCOPYRIGHT =1998
EXTT0=
EXTT1=
EXTT2=
EXTT3=
EXTT4=
EXTT5=
EXTT6=
EXTT7=
EXTT8=
EXTT9=
EXTT10=
EXTT11=
EXTT12=
EXTT13=
EXTT14=
EXTT15=
EXTT16=
PLAYORDER=
